<svg xmlns="http://www.w3.org/2000/svg" viewBox="0 0 128 128">
  <defs>
    <filter id="shadow" x="-20%" y="-20%" width="140%" height="140%">
      <feDropShadow dx="0" dy="3" stdDeviation="3" flood-color="#000" flood-opacity="0.35" />
    </filter>
  </defs>
  <g filter="url(#shadow)">
    <ellipse cx="58" cy="72" rx="36" ry="32" fill="#fff4db" />
    <ellipse cx="86" cy="44" rx="22" ry="20" fill="#fff4db" />
    <ellipse cx="76" cy="64" rx="18" ry="16" fill="#fffff5" />
    <path d="M86 28 C90 22 96 18 100 18 C106 18 110 22 108 36" fill="#e23b3b" />
    <circle cx="96" cy="44" r="4" fill="#2b2b2b" />
    <path d="M108 50 L124 56 L108 62 Z" fill="#ffa71f" />
    <path d="M50 86 Q44 76 34 78 Q30 92 38 102 Q48 110 56 102 Z" fill="#fff6e2" />
    <rect x="52" y="94" width="8" height="16" rx="3" fill="#ffa71f" />
    <rect x="72" y="94" width="8" height="16" rx="3" fill="#ffa71f" />
  </g>
</svg>
